# xmcd
#
# Track frame offsets: 
#        150
#        11534
#        23994
#        36613
#        49880
#        63044
#        74332
#        87438
#        97664
#        111945
#        124058
#        137273
#        152455
#        168202
#
# Disc length: 2388 seconds
#
# Revision: 0
# Processed by: cddbd v1.5.2PL0 Copyright (c) Steve Scherf et al.
# Submitted via: ExactAudioCopy v1.0b4
#
DISCID=ac09520e
DTITLE=Sonny Boy Williamson - The Chess Years Vol 6 (LP)
DYEAR=1900
DGENRE=Blues
TTITLE0=The Key (To Your Door)
TTITLE1=Hurts Me So Much ( Take 3)
TTITLE2=Cool Disposition ( Take 1)
TTITLE3=Dissatisfied
TTITLE4=Cross My Heart
TTITLE5=She Got Next To Me
TTITLE6=Fattening Frogs For Snakes
TTITLE7=Your Funeral And My Trial
TTITLE8=Cool Disposition ( Take 3)
TTITLE9=The Goat
TTITLE10=Ninety Nine
TTITLE11=Hurts Me So Much ( Take 4)
TTITLE12=Nine Below Zero
TTITLE13=Checkin' Up On My Baby
EXTD=
EXTT0=
EXTT1=
EXTT2=
EXTT3=
EXTT4=
EXTT5=
EXTT6=
EXTT7=
EXTT8=
EXTT9=
EXTT10=
EXTT11=
EXTT12=
EXTT13=
PLAYORDER=
